# xmcd
#
# Track frame offsets: 
#        150
#        10614
#        22761
#        35949
#        49347
#        59679
#        72110
#        85424
#        96683
#        109382
#        122179
#        131645
#
# Disc length: 1968 seconds
#
# Revision: 0
# Processed by: cddbd v1.5.2PL0 Copyright (c) Steve Scherf et al.
# Submitted via: ExactAudioCopy v0.99pb1
#
DISCID=b007ae0c
DTITLE=Casey James Prestwood - The Hurtin' Kind
DYEAR=2007
DGENRE=Country
TTITLE0=Still the Same
TTITLE1=Whiskey, Peroxide and Smoke
TTITLE2=Family Time
TTITLE3=Bandy the Rodeo Clown
TTITLE4=Guy Like Me
TTITLE5=Pinch of Love Duet with Arabella Harrison
TTITLE6=I'm Gonna Kill You
TTITLE7=Blue Eyes
TTITLE8=Gamblin' Fool
TTITLE9=Bad Seed
TTITLE10=Skinny
TTITLE11=Oh Boy
EXTD=
EXTT0=
EXTT1=
EXTT2=
EXTT3=
EXTT4=
EXTT5=
EXTT6=
EXTT7=
EXTT8=
EXTT9=
EXTT10=
EXTT11=
PLAYORDER=
